<svg width="626" height="742" viewBox="0 0 626 742" fill="none" xmlns="http://www.w3.org/2000/svg">
<g clip-path="url(#clip0_161_473)">
<path d="M316.466 497.48C423.363 497.48 510.02 410.677 510.02 303.601C510.02 196.525 423.363 109.722 316.466 109.722C209.569 109.722 122.912 196.525 122.912 303.601C122.912 410.677 209.569 497.48 316.466 497.48Z" fill="#E9A53A" stroke="#E5E5E5" stroke-width="1.06" stroke-miterlimit="10"/>
<path d="M340.466 562.578H318.45C302.192 562.578 289.013 575.78 289.013 592.064V712.514C289.013 728.798 302.192 742 318.45 742H340.466C356.724 742 369.903 728.798 369.903 712.514V592.064C369.903 575.78 356.724 562.578 340.466 562.578Z" fill="#9BC48D"/>
<path d="M351.203 705.653C364.385 687.711 395.1 635.708 447.776 621.333C480.284 612.484 502.654 623.13 485.095 662.581C467.672 701.732 346.799 732.525 346.799 732.525L351.203 705.626V705.653Z" fill="#9BC48D"/>
<path d="M285.642 726.59C263.3 718.231 199.316 699.799 177.001 660.266C163.22 635.872 173.277 617.303 221.197 626.805C268.763 636.226 317.525 727.162 317.525 727.162L285.642 726.59Z" fill="#9BC48D"/>
<path d="M212.472 11.3259C212.472 11.3259 198.882 102.48 203.502 109.722C208.123 116.964 297.684 96.7078 300.565 82.2234C303.446 67.739 240.387 9.88294 230.031 4.08372C219.675 -1.71549 215.353 2.64073 212.472 11.3259Z" fill="#E25E30" stroke="white" stroke-width="1.06" stroke-miterlimit="10"/>
<path d="M419.834 23.8775C419.834 23.8775 356.557 67.6575 354.845 74.6547C353.132 81.6518 417.442 125.459 427.934 118.979C438.425 112.499 436.958 40.3222 434.457 30.6024C431.956 20.8826 426.819 20.692 419.861 23.8775H419.834Z" fill="#E07E2F" stroke="white" stroke-width="1.06" stroke-miterlimit="10"/>
<path d="M567.398 132.974C567.398 132.974 490.613 137.52 485.53 142.612C480.447 147.703 512.738 218.573 525.078 218.464C537.418 218.355 573.514 155.898 576.422 146.287C579.331 136.676 575.009 133.845 567.425 132.946L567.398 132.974Z" fill="#E25E30" stroke="white" stroke-width="0.89" stroke-miterlimit="10"/>
<path d="M619.64 299.163C619.64 299.163 554.352 258.433 547.258 259.658C540.163 260.883 525.649 337.416 535.76 344.441C545.871 351.465 611.377 321.407 619.287 315.254C627.196 309.101 625.321 304.282 619.64 299.163Z" fill="#E07E2F" stroke="white" stroke-width="1.06" stroke-miterlimit="10"/>
<path d="M594.633 444.824C594.633 444.824 553.835 379.508 546.931 377.466C540.027 375.424 493.412 437.8 499.419 448.581C505.426 459.363 577.455 461.187 587.24 459.118C597.025 457.049 597.46 451.93 594.606 444.824H594.633Z" fill="#E25E30" stroke="white" stroke-width="0.89" stroke-miterlimit="10"/>
<path d="M455.386 568.949C455.386 568.949 459.98 492.035 455.522 486.371C451.064 480.708 376.997 504.45 375.638 516.702C374.279 528.953 431.929 572.298 441.089 576.3C450.249 580.33 453.592 576.382 455.386 568.922V568.949Z" fill="#E07E2F" stroke="white" stroke-width="1.06" stroke-miterlimit="10"/>
<path d="M49.4961 138.337C49.4961 138.337 99.4271 215.741 107.663 218.137C115.899 220.533 169.771 146.042 162.405 133.273C155.039 120.504 69.5011 118.788 57.9221 121.293C46.3431 123.798 45.9354 129.924 49.4961 138.337Z" fill="#E07E2F" stroke="white" stroke-width="1.06" stroke-miterlimit="10"/>
<path d="M7.58333 315.363C7.58333 315.363 84.2602 356.066 92.1155 354.324C99.9707 352.581 109.701 268.343 97.7691 261.237C85.8367 254.131 14.9493 290.614 6.60482 297.775C-1.73967 304.935 0.788136 310.081 7.58333 315.336V315.363Z" fill="#E25E30" stroke="white" stroke-width="0.99" stroke-miterlimit="10"/>
<path d="M70.8874 509.542C70.8874 509.542 156.643 496.282 161.916 490.211C167.189 484.139 124.732 410.737 110.925 412.207C97.1168 413.678 62.0265 485.337 59.6074 496.065C57.1883 506.792 62.2711 509.405 70.8602 509.569L70.8874 509.542Z" fill="#E07E2F" stroke="white" stroke-width="1.06" stroke-miterlimit="10"/>
<path d="M252.183 589.668C252.183 589.668 287.246 519.642 285.588 512.618C283.93 505.593 208.748 498.624 202.605 509.541C196.463 520.459 230.031 583.57 236.554 590.948C243.05 598.299 247.59 595.931 252.183 589.696V589.668Z" fill="#E25E30" stroke="white" stroke-width="1.06" stroke-miterlimit="10"/>
<path d="M239.897 270.303C247.868 270.303 254.33 263.83 254.33 255.846C254.33 247.861 247.868 241.389 239.897 241.389C231.926 241.389 225.464 247.861 225.464 255.846C225.464 263.83 231.926 270.303 239.897 270.303Z" fill="white"/>
<path d="M367.022 241.362C374.993 241.362 381.455 234.889 381.455 226.904C381.455 218.92 374.993 212.447 367.022 212.447C359.051 212.447 352.589 218.92 352.589 226.904C352.589 234.889 359.051 241.362 367.022 241.362Z" fill="white"/>
<path d="M190.238 329.058C205.242 339.758 257.076 379.998 342.478 352.799C406.026 332.543 427.336 296.359 441.959 255.846" stroke="white" stroke-width="3.19" stroke-miterlimit="10"/>
</g>
<defs>
<clipPath id="clip0_161_473">
<rect width="626" height="742" fill="white"/>
</clipPath>
</defs>
</svg>
